# xmcd CD database file
#
# Track frame offsets:
#	150
#	22018
#	37754
#	53249
#	77735
#	97201
#	113338
#	129391
#	144277
#	163839
#	182567
#	204447
#	224967
#	242601
#	256246
#
# Disc length: 3627 seconds
#
# Revision: 0
# Processed by: cddbd v1.5.1PL2 Copyright (c) Steve Scherf et al.
# Submitted via: CDex 1.60beta1-cs1
#
DISCID=cd0e290f
DTITLE=Vicki Delor - Fairy Tales
DYEAR=2005
DGENRE=New Age
TTITLE0=Dance Of The Crickets
TTITLE1=Clestial Showers
TTITLE2=September Love
TTITLE3=Flying High
TTITLE4=Count The Stars
TTITLE5=Fairy Tales
TTITLE6=Near But Far
TTITLE7=Butterfly
TTITLE8=Rise And Shine
TTITLE9=Rain Bird
TTITLE10=Enchanted Visit
TTITLE11=Peaceful Path
TTITLE12=Love Theme
TTITLE13=Castle In The Aire
TTITLE14=I Will Always Love You
EXTD=YEAR: 2005
EXTT0=
EXTT1=
EXTT2=
EXTT3=
EXTT4=
EXTT5=
EXTT6=
EXTT7=
EXTT8=
EXTT9=
EXTT10=
EXTT11=
EXTT12=
EXTT13=
EXTT14=
PLAYORDER=
